<svg width="250" height="250" viewBox="0 0 250 250" fill="none" xmlns="http://www.w3.org/2000/svg">
<rect width="250" height="250" fill="white"/>
<path d="M142.487 152.664L102.726 84.9798C101.411 82.6946 100.765 80.0861 100.861 77.4515C100.737 74.2352 101.264 71.0271 102.41 68.0192C103.556 65.0114 105.298 62.2657 107.53 59.9465C109.762 57.6274 112.44 55.7824 115.402 54.5223C118.365 53.2621 121.551 52.6125 124.77 52.6125C127.99 52.6125 131.176 53.2621 134.138 54.5223C137.101 55.7824 139.778 57.6274 142.011 59.9465C144.243 62.2657 145.985 65.0114 147.13 68.0192C148.276 71.0271 148.803 74.2352 148.68 77.4515C148.62 80.9777 147.753 84.4434 146.147 87.5831C144.739 90.2919 136.611 102.429 136.611 102.429L126.301 84.8391L128.905 81.3212C129.816 80.2299 130.347 78.8715 130.418 77.4515C130.418 76.7123 130.272 75.9804 129.989 75.2975C129.706 74.6146 129.292 73.9941 128.769 73.4714C128.246 72.9488 127.625 72.5342 126.942 72.2513C126.259 71.9684 125.527 71.8229 124.788 71.8229C124.049 71.8229 123.317 71.9684 122.633 72.2513C121.95 72.5342 121.33 72.9488 120.807 73.4714C120.284 73.9941 119.87 74.6146 119.587 75.2975C119.304 75.9804 119.158 76.7123 119.158 77.4515C119.158 78.9642 119.897 79.8085 120.847 81.4971L144.669 121.531C148.354 126.855 149.852 133.391 148.856 139.789C147.843 144.545 145.653 148.972 142.487 152.664Z" fill="#014EA2"/>
<path d="M127.803 175.125L117.529 157.746C116.538 159.553 115.267 161.192 113.764 162.601C112.151 163.589 110.267 164.045 108.38 163.903H96.4518C93.6368 163.903 91.9127 161.335 91.033 160.385L72.8413 130.623C71.3713 128.101 70.6854 125.199 70.8708 122.286V82.7798C71.1777 79.6042 72.555 76.6271 74.7766 74.3368C75.8674 73.2814 96.874 46.8971 98.7741 44.5401C99.529 43.6012 100.482 42.8401 101.564 42.3111C102.647 41.7821 103.833 41.4982 105.037 41.4796H145.291C146.558 41.6304 147.774 42.0625 148.852 42.7442C149.93 43.426 150.841 44.3401 151.52 45.4196C151.52 45.4196 175.024 74.1257 176.502 75.8495C178.064 77.5619 178.984 79.7622 179.106 82.0762V128.02C179.137 130.023 178.613 131.995 177.593 133.719C177.593 133.719 161.653 160.244 160.598 161.862C160.187 162.504 159.611 163.023 158.929 163.363C158.248 163.704 157.487 163.854 156.727 163.797H147.086C146.457 163.749 145.849 163.547 145.315 163.21C144.781 162.873 144.339 162.41 144.025 161.862L111.617 106.35C108.74 110.02 106.687 114.268 105.6 118.803C104.387 124.308 105.159 130.065 107.782 135.056L131.885 176.356C132.526 177.681 133.525 178.802 134.768 179.591C136.011 180.38 137.45 180.807 138.923 180.824H167.635C170.204 180.824 173.019 176.567 173.617 175.336C173.617 175.336 192.829 143.675 194.729 140.368C196.26 137.691 196.935 134.61 196.665 131.538V75.6384C196.69 74.262 196.413 72.8967 195.853 71.6386C195.294 70.3806 194.466 69.2603 193.427 68.3564L159.683 27.9708C158.947 26.8856 157.955 25.9974 156.796 25.3841C155.636 24.7708 154.344 24.451 153.033 24.4529H94.9387C93.4818 24.5565 92.0662 24.9828 90.7943 25.7007C89.5224 26.4187 88.426 27.4104 87.5846 28.604C87.5846 28.604 58.4497 65.7179 56.5145 68.286C54.5559 70.6794 53.4208 73.64 53.2773 76.729V130.096C53.4763 133.585 54.7003 136.938 56.796 139.735C56.796 139.735 78.612 174.597 80.3713 177.236C81.2922 178.391 82.4738 179.313 83.8193 179.924C85.1648 180.536 86.6359 180.82 88.1124 180.753H120.062C121.549 180.682 122.988 180.21 124.227 179.386C125.466 178.562 126.459 177.418 127.1 176.075L127.803 175.125Z" fill="#014EA2"/>
<path d="M191.179 205.146C190.924 205.104 190.668 205.076 190.41 205.061C189.633 205.062 188.865 205.222 188.152 205.531C187.44 205.84 186.798 206.292 186.268 206.859V205.461H181.879V225.063H186.291V213.644C186.291 210.709 187.405 209.203 189.572 209.203C189.866 209.206 190.16 209.234 190.449 209.287C190.948 207.963 191.209 206.561 191.217 205.146" fill="#014EA2"/>
<path d="M190.772 205.092C190.895 205.283 190.942 205.514 190.902 205.738C190.826 206.099 190.718 206.437 190.641 206.79C190.617 206.894 190.572 206.992 190.509 207.077C190.445 207.163 190.365 207.234 190.272 207.287C190.18 207.34 190.078 207.373 189.972 207.384C189.866 207.395 189.759 207.384 189.657 207.351C189.657 207.774 189.711 208.189 189.726 208.604C189.852 208.665 189.954 208.764 190.019 208.888C190.183 208.978 190.309 209.126 190.372 209.303C191.909 209.549 192.839 210.625 192.839 214.021V225.063H197.259V213.867C197.259 208.189 195.068 205.253 190.772 205.092Z" fill="#014EA2"/>
<path d="M152.75 209.203C155.363 209.203 156.593 211.324 156.593 215.704C156.593 219.438 155.332 221.328 152.85 221.328C152.033 221.259 151.242 221.01 150.532 220.599C149.823 220.189 149.213 219.627 148.745 218.954V211.393C149.329 210.671 150.79 209.203 152.711 209.203H152.75ZM148.346 194.365L144.503 196.393V225.063H148.907V223.664C150.098 224.78 151.656 225.42 153.288 225.462C156.892 225.462 161.112 222.865 161.112 215.581C161.112 208.896 158.314 205.061 153.48 205.061C151.78 205.126 150.159 205.793 148.907 206.944V194.096L148.346 194.365Z" fill="#014EA2"/>
<path d="M166.684 218.685C166.684 217.148 168.045 216.211 170.22 216.211C171.576 216.155 172.926 216.419 174.162 216.979V219.284C173.664 219.935 173.03 220.468 172.303 220.848C171.577 221.228 170.777 221.444 169.958 221.482C167.852 221.482 166.684 220.483 166.684 218.731V218.685ZM164.378 206.898L164.102 207.067L165.862 210.502L166.192 210.325C167.641 209.525 169.28 209.132 170.934 209.188C172.395 209.188 174.132 209.679 174.132 212.031V212.945C172.894 212.529 171.594 212.329 170.289 212.353C165.362 212.353 162.403 214.766 162.403 218.816C162.403 223.488 165.885 225.547 169.32 225.547C171.102 225.486 172.805 224.801 174.132 223.611V225.147H178.497V211.769C178.497 207.528 175.784 205.084 171.042 205.084C168.698 205.012 166.383 205.62 164.378 206.836" fill="#014EA2"/>
<path d="M56.6074 218.685C56.6074 217.148 57.9524 216.211 60.1275 216.211C61.4888 216.155 62.8442 216.418 64.0857 216.979V219.285C63.5878 219.934 62.9544 220.466 62.2297 220.846C61.505 221.225 60.7064 221.442 59.8892 221.482C57.7679 221.482 56.6074 220.483 56.6074 218.731V218.685ZM54.3016 206.898L54.0172 207.067L55.7773 210.502L56.1385 210.233C57.59 209.432 59.2314 209.039 60.8884 209.095C62.3487 209.095 64.0857 209.587 64.0857 211.939V212.853C62.8477 212.439 61.5481 212.239 60.2428 212.261C55.3008 212.261 52.3494 214.674 52.3494 218.724C52.3494 223.396 55.8311 225.455 59.2667 225.455C61.0481 225.394 62.7513 224.708 64.078 223.518V225.055H68.4436V211.769C68.4436 207.528 65.7228 205.084 60.996 205.084C58.6673 205.012 56.3671 205.612 54.3708 206.813" fill="#014EA2"/>
<path d="M85.4679 207.682C84.9124 206.827 84.1405 206.134 83.2307 205.674C82.3209 205.214 81.3056 205.002 80.2877 205.061C79.5107 205.061 78.742 205.22 78.0293 205.53C77.3167 205.839 76.6753 206.292 76.145 206.859V205.461H71.7179V225.063H76.145V213.644C76.145 210.709 77.2441 209.203 79.4192 209.203C81.3791 209.203 82.6933 210.025 82.6933 214.021V225.063H87.1357V213.644C87.1357 210.709 88.2425 209.203 90.4099 209.203C92.3775 209.203 93.6841 210.025 93.6841 214.021V225.063H98.1111V213.867C98.1111 208.035 95.8054 205.061 91.2784 205.061C90.1707 205 89.0646 205.206 88.0533 205.662C87.042 206.118 86.1553 206.811 85.4679 207.682Z" fill="#014EA2"/>
<path d="M109.663 209.203C112.284 209.203 113.552 211.324 113.552 215.704C113.552 219.438 112.284 221.328 109.809 221.328C108.992 221.259 108.201 221.01 107.491 220.599C106.782 220.189 106.172 219.627 105.705 218.954V211.393C106.296 210.671 107.749 209.203 109.663 209.203ZM105.243 194.365L101.385 196.401V225.063H105.781V223.664C106.971 224.777 108.526 225.417 110.155 225.462C113.767 225.462 117.986 222.865 117.986 215.581C117.986 208.896 115.197 205.061 110.354 205.061C108.641 205.117 107.005 205.785 105.743 206.944V194.096L105.243 194.365Z" fill="#014EA2"/>
<path d="M123.643 218.685C123.643 217.148 124.988 216.211 127.171 216.211C128.525 216.155 129.873 216.418 131.106 216.979V219.284C130.611 219.936 129.978 220.471 129.253 220.851C128.528 221.23 127.728 221.446 126.91 221.482C124.804 221.482 123.643 220.483 123.643 218.731V218.685ZM121.338 206.898L121.053 207.067L122.813 210.502L123.144 210.325C124.595 209.524 126.237 209.131 127.894 209.188C129.354 209.188 131.083 209.679 131.083 212.031V212.945C129.846 212.527 128.546 212.327 127.24 212.353C122.306 212.353 119.355 214.766 119.355 218.816C119.355 223.488 122.829 225.547 126.272 225.547C128.051 225.488 129.753 224.802 131.076 223.611V225.147H135.441V211.769C135.441 207.528 132.728 205.084 127.994 205.084C125.65 205.012 123.335 205.62 121.33 206.836" fill="#014EA2"/>
<path d="M33.9112 210.771C33.9112 214.705 36.8318 215.773 41.2742 216.872C45.1556 217.84 45.8857 218.539 45.8857 219.461C45.8857 220.053 45.8857 221.62 41.8353 221.62C39.8526 221.611 37.9408 220.882 36.4552 219.569L36.094 219.238L32.8505 221.889L33.2809 222.327C35.5179 224.434 38.4939 225.577 41.5663 225.509C47.1385 225.509 50.3435 223.249 50.3435 219.261C50.3435 215.273 46.931 214.113 42.8114 213.068C39.0146 212.077 38.3766 211.531 38.3766 210.655C38.3766 209.518 39.5603 208.857 41.5355 208.857C43.2927 208.774 45.0147 209.368 46.3469 210.517L46.7004 210.832L49.9054 208.073L49.3982 207.651C47.2726 205.862 44.5667 204.911 41.7892 204.977C37.1777 204.977 33.9112 207.351 33.9112 210.771Z" fill="#014EA2"/>
<path d="M212.33 225.124L207.219 217.394L205.067 220.045V225.124H200.656V196.455L205.067 194.242V210.747C205.067 211.769 205.067 213.498 205.006 214.32C205.459 213.66 206.22 212.599 206.797 211.869L211.8 205.284H217.011L210.394 213.683L217.15 225.124H212.33Z" fill="#014EA2"/>
</svg>
