<svg width="250" height="250" viewBox="0 0 250 250" fill="none" xmlns="http://www.w3.org/2000/svg">
<rect width="250" height="250" fill="white"/>
<path d="M21.3691 91.1855V109.252V157.698L29.6663 156.536L38.3672 155.051V132.182H60.5582V116.955H38.3672V109.321V109.252H60.5582L60.6779 91.1855H21.3691Z" fill="#454545"/>
<path d="M62.8157 91.1855V150.88L79.8134 147.979V91.1855H62.8157Z" fill="#454545"/>
<path d="M121.625 91.1855V115.538L99.5744 91.1855H82.5542V147.512L99.5519 144.611V115.28L124.722 140.316L139.685 137.763V91.1855H121.625Z" fill="#454545"/>
<path d="M172.343 91.1855V158.126H189.34V147.29H216.007L200.822 132.182H189.34L189.381 115.734L228.696 155.273L228.645 135.135L186.98 91.1855H172.343Z" fill="#EF4423"/>
<mask id="mask0_414_33" style="mask-type:luminance" maskUnits="userSpaceOnUse" x="21" y="91" width="208" height="68">
<path d="M228.696 91.1855H21.3035V158.815H228.696V91.1855Z" fill="white"/>
</mask>
<g mask="url(#mask0_414_33)">
<path d="M21.3695 158.78C21.2267 158.793 21.3594 158.804 21.3695 158.815V158.78Z" fill="#F15D22"/>
</g>
<mask id="mask1_414_33" style="mask-type:luminance" maskUnits="userSpaceOnUse" x="21" y="91" width="208" height="68">
<path d="M228.696 91.1855H21.3035V158.815H228.696V91.1855Z" fill="white"/>
</mask>
<g mask="url(#mask1_414_33)">
<path d="M143.358 107.28H153.045V136.196L152.753 136.245L24.0544 158.206C50.7379 157.359 162.584 158.235 169.69 158.09V91.5366H143.358V107.28Z" fill="#EF4423"/>
</g>
</svg>
